PathFileType	4	(X/Y/Z)	OpenSim_Sub09_EMGBaseline_Magnet.trc
DataRate	CameraRate	NumFrames	NumMarkers	Units	OrigDataRate	OrigDataStartFrame	OrigNumFrames
100	100	23	8	m	100	1	7301
Frame#	Time	torso_imu_offset_imu	pelvis_imu_offset_imu	tibia_r_imu_offset_imu	femur_r_imu_offset_imu	tibia_l_imu_offset_imu	femur_l_imu_offset_imu	toes_r_imu_offset_imu	toes_l_imu_offset_imu
				X1	Y1	Z1	X2	Y2	Z2	X3	Y3	Z3	X4	Y4	Z4	X5	Y5	Z5	X6	Y6	Z6	X7	Y7	Z7	X8		Y8	Z8	

1	0	-0.93212900	-0.22192400	0.04052700	-0.70800800	0.30004900	-0.56494100	-0.60498000	-0.65551800	-0.16088900	-0.72387700	-0.44604500	0.04174800	-0.65527300	0.50463900	0.11181600	-0.76709000	0.27392600	0.26806600	-0.66455100	-0.23291000	-0.46069300	-0.73461900	-0.13427700	-0.40625000
2	0.01000000	-0.93237300	-0.21777300	0.04907200	-0.71020500	0.29785200	-0.56030300	-0.59863300	-0.65966800	-0.16308600	-0.72607400	-0.43994100	0.03686500	-0.65942400	0.50024400	0.11889600	-0.76513700	0.27612300	0.26367200	-0.66870100	-0.23315400	-0.45434600	-0.72778300	-0.13867200	-0.41064500
3	0.02000000	-0.93652300	-0.22412100	0.05151400	-0.71020500	0.29980500	-0.56030300	-0.60498000	-0.65771500	-0.16088900	-0.72583000	-0.44409200	0.04150400	-0.65307600	0.50683600	0.11401400	-0.76928700	0.27392600	0.26586900	-0.66455100	-0.23706100	-0.45629900	-0.73046900	-0.12768600	-0.41308600
4	0.03000000	-0.93432600	-0.22192400	0.04711900	-0.71264600	0.30419900	-0.56054700	-0.60302700	-0.65551800	-0.16772500	-0.73022500	-0.44189500	0.04150400	-0.65747100	0.50683600	0.11401400	-0.76513700	0.27612300	0.27270500	-0.67285200	-0.23730500	-0.46069300	-0.73242200	-0.13427700	-0.40625000
5	0.04000000	-0.93432600	-0.22192400	0.04492200	-0.71044900	0.30835000	-0.56079100	-0.59668000	-0.65771500	-0.16308600	-0.72583000	-0.44604500	0.03930700	-0.65527300	0.50903300	0.10937500	-0.76733400	0.27612300	0.26806600	-0.66650400	-0.23706100	-0.45849600	-0.72778300	-0.13647500	-0.40844700
6	0.05000000	-0.93237300	-0.21972700	0.04492200	-0.70825200	0.30419900	-0.56054700	-0.60058600	-0.66381800	-0.16967800	-0.72387700	-0.43994100	0.03222700	-0.65527300	0.50683600	0.11621100	-0.76709000	0.27392600	0.26586900	-0.67089800	-0.23706100	-0.46069300	-0.73486300	-0.13208000	-0.40844700
7	0.06000000	-0.93432600	-0.21997100	0.04711900	-0.71264600	0.30615200	-0.56054700	-0.60302700	-0.65551800	-0.15869100	-0.72802700	-0.44604500	0.03247100	-0.65747100	0.50683600	0.11621100	-0.76513700	0.27832000	0.26147500	-0.67065400	-0.23925800	-0.46044900	-0.72827100	-0.12768600	-0.41088900
8	0.07000000	-0.93432600	-0.22412100	0.05151400	-0.70800800	0.29565400	-0.56030300	-0.59887700	-0.65551800	-0.16088900	-0.72998000	-0.44409200	0.03686500	-0.65747100	0.50683600	0.11181600	-0.76293900	0.28051800	0.26586900	-0.66650400	-0.23706100	-0.45849600	-0.72583000	-0.13427700	-0.41064500
9	0.08000000	-0.93432600	-0.21997100	0.04711900	-0.71264600	0.30615200	-0.56054700	-0.59887700	-0.65551800	-0.15869100	-0.72607400	-0.44189500	0.03930700	-0.66430700	0.50683600	0.11401400	-0.76733400	0.28051800	0.26806600	-0.66455100	-0.23706100	-0.45629900	-0.72802700	-0.13427700	-0.40405300
10	0.09000000	-0.93212900	-0.22192400	0.04272500	-0.71240200	0.30200200	-0.56054700	-0.60083000	-0.65966800	-0.15844700	-0.72998000	-0.44409200	0.03930700	-0.65527300	0.50683600	0.11621100	-0.76733400	0.27612300	0.26806600	-0.66870100	-0.23315400	-0.45654300	-0.72827100	-0.12548800	-0.41528300
11	0.10000000	-0.93212900	-0.22192400	0.04272500	-0.71704100	0.30835000	-0.55835000	-0.60302700	-0.65771500	-0.16308600	-0.72802700	-0.44409200	0.04150400	-0.65307600	0.50903300	0.10937500	-0.76489300	0.27392600	0.26806600	-0.66870100	-0.23315400	-0.45849600	-0.73022500	-0.13208000	-0.40844700
12	0.11000000	-0.93212900	-0.22192400	0.04492200	-0.71044900	0.30419900	-0.56054700	-0.60083000	-0.65771500	-0.15869100	-0.72387700	-0.44409200	0.04394500	-0.65527300	0.50903300	0.11377000	-0.76513700	0.27612300	0.27050800	-0.66674800	-0.23291000	-0.45849600	-0.73046900	-0.12988300	-0.40844700
13	0.12000000	-0.93847700	-0.22412100	0.04492200	-0.71679700	0.30615200	-0.56054700	-0.60058600	-0.66186500	-0.16284200	-0.72802700	-0.44189500	0.03906200	-0.65307600	0.50683600	0.11840800	-0.76513700	0.27612300	0.26806600	-0.66674800	-0.23291000	-0.46069300	-0.73217800	-0.13867200	-0.40844700
14	0.13000000	-0.93432600	-0.22412100	0.04272500	-0.70825200	0.30419900	-0.56054700	-0.60083000	-0.65771500	-0.16308600	-0.72363300	-0.44604500	0.03247100	-0.65966800	0.50683600	0.11840800	-0.76733400	0.27612300	0.26806600	-0.66870100	-0.23925800	-0.45214800	-0.72583000	-0.13208000	-0.40405300
15	0.14000000	-0.92993200	-0.22412100	0.03833000	-0.71044900	0.30419900	-0.56518600	-0.59887700	-0.65356400	-0.16088900	-0.72802700	-0.44604500	0.04150400	-0.65771500	0.51123000	0.11377000	-0.76269500	0.27392600	0.26806600	-0.67089800	-0.23510700	-0.45849600	-0.72802700	-0.13208000	-0.40844700
16	0.15000000	-0.93212900	-0.22412100	0.04272500	-0.70825200	0.30419900	-0.55590800	-0.60083000	-0.65966800	-0.16748000	-0.72387700	-0.44189500	0.03466800	-0.65087900	0.50683600	0.11401400	-0.76293900	0.27832000	0.26586900	-0.67065400	-0.23925800	-0.46044900	-0.72802700	-0.12988300	-0.41308600
17	0.16000000	-0.92773400	-0.22607400	0.03637700	-0.71240200	0.29980500	-0.56030300	-0.59448200	-0.65771500	-0.16308600	-0.72168000	-0.44409200	0.03930700	-0.65747100	0.50903300	0.11401400	-0.76293900	0.27612300	0.26586900	-0.67285200	-0.23510700	-0.45434600	-0.72583000	-0.13208000	-0.40844700
18	0.17000000	-0.93432600	-0.22631800	0.04516600	-0.71264600	0.30615200	-0.56298800	-0.60083000	-0.65966800	-0.16528300	-0.71972700	-0.43994100	0.03686500	-0.65771500	0.51342800	0.11157200	-0.76074200	0.27612300	0.26586900	-0.67309600	-0.23095700	-0.46264600	-0.72607400	-0.12548800	-0.41088900
19	0.18000000	-0.92797900	-0.22192400	0.03833000	-0.71044900	0.30419900	-0.56054700	-0.59863300	-0.66186500	-0.16528300	-0.72583000	-0.44604500	0.03466800	-0.65283200	0.50244100	0.11645500	-0.76513700	0.27612300	0.26367200	-0.66894500	-0.23095700	-0.46484400	-0.72607400	-0.12768600	-0.40844700
20	0.19000000	-0.92797900	-0.22412100	0.03833000	-0.71020500	0.30004900	-0.56738300	-0.60302700	-0.65771500	-0.16308600	-0.72363300	-0.44604500	0.03466800	-0.65747100	0.50903300	0.11840800	-0.76757800	0.28247100	0.26147500	-0.66674800	-0.23291000	-0.45849600	-0.72338900	-0.13427700	-0.41064500
21	0.20000000	-0.93432600	-0.22192400	0.03173800	-0.70605500	0.30419900	-0.56274400	-0.59887700	-0.65551800	-0.15869100	-0.72802700	-0.44409200	0.04150400	-0.65747100	0.50903300	0.12060500	-0.76318400	0.28271500	0.26586900	-0.67089800	-0.23510700	-0.45849600	-0.73242200	-0.13647500	-0.40625000
22	0.21000000	-0.93432600	-0.22192400	0.03173800	-0.71460000	0.30419900	-0.56054700	-0.60302700	-0.65771500	-0.15869100	-0.72802700	-0.44409200	0.04394500	-0.65307600	0.50903300	0.11377000	-0.76269500	0.27392600	0.26367200	-0.66894500	-0.23095700	-0.46264600	-0.72802700	-0.13208000	-0.40844700
23	0.22000000	-0.93017600	-0.22192400	0.02954100	-0.71044900	0.30615200	-0.56298800	-0.60083000	-0.65966800	-0.16308600	-0.72168000	-0.44409200	0.03710900	-0.65966800	0.50683600	0.11840800	-0.76293900	0.27832000	0.26586900	-0.67504900	-0.23510700	-0.45654300	-0.73486300	-0.12988300	-0.41088900
